<?xml version="1.0" standalone="no"?>
<!DOCTYPE svg PUBLIC "-//W3C//DTD SVG 20010904//EN"
 "http://www.w3.org/TR/2001/REC-SVG-20010904/DTD/svg10.dtd">
<svg version="1.0" xmlns="http://www.w3.org/2000/svg"
 width="1030.000000pt" height="1030.000000pt" viewBox="0 0 1030.000000 1030.000000"
 preserveAspectRatio="xMidYMid meet">
<metadata>
Created by potrace 1.14, written by Peter Selinger 2001-2017
</metadata>
<g transform="translate(0.000000,1030.000000) scale(0.100000,-0.100000)"
fill="#000000" stroke="none">
<path d="M4878 10295 c-2 -1 -43 -6 -93 -9 -49 -3 -112 -8 -140 -11 -90 -9
-157 -17 -179 -20 -11 -2 -41 -6 -66 -9 -43 -6 -61 -9 -120 -21 -14 -2 -38 -7
-55 -10 -16 -2 -55 -9 -85 -15 -30 -6 -66 -14 -80 -16 -22 -5 -74 -17 -120
-28 -8 -2 -28 -7 -45 -11 -197 -46 -602 -183 -780 -264 -22 -10 -69 -31 -105
-47 -181 -79 -461 -234 -671 -369 -89 -58 -308 -211 -319 -224 -3 -3 -30 -25
-60 -48 -30 -23 -64 -50 -75 -60 -12 -10 -50 -43 -85 -73 -121 -102 -376 -349
-476 -461 -86 -96 -217 -256 -289 -354 -86 -115 -255 -361 -255 -370 0 -3 -8
-18 -19 -33 -71 -102 -223 -392 -310 -587 -29 -66 -57 -129 -61 -140 -86 -192
-232 -658 -274 -875 -2 -14 -11 -59 -20 -100 -19 -94 -34 -181 -41 -245 -4
-27 -8 -57 -10 -65 -2 -8 -7 -46 -11 -85 -3 -38 -8 -79 -10 -90 -18 -96 -26
-675 -11 -870 7 -97 24 -264 32 -315 2 -14 9 -61 15 -105 6 -44 15 -96 20
-115 5 -19 11 -53 15 -75 9 -66 16 -98 20 -104 2 -4 6 -26 10 -51 4 -24 11
-52 16 -62 5 -10 8 -18 5 -18 -2 0 4 -30 15 -67 11 -38 21 -77 23 -88 14 -71
153 -482 196 -580 108 -247 218 -473 279 -577 9 -15 40 -67 68 -116 92 -155
288 -440 384 -557 202 -244 217 -261 389 -434 152 -153 220 -217 310 -291 30
-25 64 -53 75 -63 120 -110 545 -400 726 -497 10 -5 57 -31 105 -58 171 -94
326 -165 559 -257 132 -52 419 -149 500 -168 11 -2 63 -16 115 -30 52 -14 142
-35 200 -46 58 -12 116 -24 130 -26 14 -3 41 -8 60 -11 19 -2 58 -9 85 -14 49
-9 210 -30 270 -35 174 -15 277 -20 495 -20 232 0 456 8 520 19 14 3 57 7 95
11 39 3 77 8 85 10 8 2 38 6 65 10 43 5 146 22 238 40 258 49 547 131 807 227
143 53 161 60 253 102 32 14 60 26 63 26 18 0 398 198 519 270 157 94 351 223
469 314 44 34 102 79 130 100 47 36 126 103 236 201 186 166 453 456 624 680
172 224 273 379 426 650 270 480 480 1086 571 1645 13 79 13 84 23 165 4 28 9
59 11 70 2 11 6 54 10 95 3 41 10 118 14 170 8 96 6 665 -3 730 -2 19 -7 68
-10 109 -4 41 -11 104 -16 140 -5 36 -12 89 -15 116 -4 28 -15 95 -25 150 -11
55 -21 111 -24 125 -2 14 -9 43 -14 65 -6 22 -13 52 -16 66 -11 67 -81 315
-130 462 -224 678 -572 1275 -1066 1832 -86 98 -346 350 -463 450 -71 61 -197
161 -280 222 -176 131 -167 124 -193 140 -320 203 -436 269 -632 364 -349 169
-784 321 -1127 395 -60 12 -101 21 -240 48 -21 4 -126 20 -240 36 -39 5 -107
12 -150 16 -44 3 -91 8 -105 11 -27 5 -656 13 -662 8z"/>
</g>
</svg>
